<svg xmlns="http://www.w3.org/2000/svg" width="12" height="13" viewBox="0 0 12 13">
<path d="M0.649434 12.0373C0.516769 12.0373 0.402705 11.9876 0.307242 11.8881C0.211789 11.7886 0.164062 11.6712 0.164062 11.536C0.164062 11.3927 0.211156 11.2733 0.305344 11.1779C0.399532 11.0824 0.519544 11.0347 0.665381 11.0347H7.46712C7.60232 11.0347 7.71702 11.0851 7.81121 11.1859C7.9054 11.2866 7.95249 11.4033 7.95249 11.536C7.95249 11.6819 7.9054 11.8019 7.81121 11.8961C7.71702 11.9902 7.59701 12.0373 7.45117 12.0373H0.649434ZM3.01942 7.89506L0.910148 5.78579C0.703975 5.57708 0.598231 5.32267 0.592915 5.02254C0.587599 4.72242 0.688027 4.46929 0.8942 4.26312L1.35669 3.78469L5.02052 7.41662L4.54208 7.89506C4.33592 8.10122 4.08214 8.2043 3.78075 8.2043C3.47936 8.2043 3.22558 8.10122 3.01942 7.89506ZM7.95353 4.47981L4.32159 0.815974L4.80002 0.353488C5.00619 0.147315 5.25996 0.0468865 5.56136 0.0522024C5.86275 0.0575183 6.1178 0.163262 6.32652 0.369435L8.43196 2.47869C8.63813 2.68741 8.74122 2.94182 8.74122 3.24194C8.74122 3.54205 8.63813 3.7952 8.43196 4.00137L7.95353 4.47981ZM10.7333 10.9577L2.47442 2.69885L3.23575 1.93369L11.5106 10.2123C11.6083 10.3101 11.6546 10.4343 11.6493 10.585C11.6439 10.7357 11.5924 10.86 11.4946 10.9577C11.3862 11.0661 11.2593 11.1203 11.114 11.1203C10.9686 11.1203 10.8417 11.0661 10.7333 10.9577Z" />
</svg>