<svg xmlns="http://www.w3.org/2000/svg" width="127" height="28" viewBox="0 0 127 28" fill="none">
<path d="M5.12721 27.2177C4.36184 27.2171 3.61009 27.0165 2.94743 26.636C2.28477 26.2555 1.73452 25.7085 1.3519 25.0499C0.969281 24.3914 0.767765 23.6444 0.767578 22.8841C0.767391 22.1237 0.96854 21.3766 1.35083 20.7179L11.0773 3.98211C11.6945 2.92005 12.5969 2.04944 13.6835 1.46756C14.7701 0.885673 15.9982 0.615445 17.2305 0.687072C18.4628 0.758699 19.6508 1.16936 20.6617 1.87316C21.6726 2.57696 22.4666 3.54617 22.9549 4.67249L24.0181 7.12293C25.8775 6.94113 27.7478 7.33987 29.3684 8.26362C30.989 9.18737 32.2794 10.5902 33.0598 12.2767L35.9881 18.5986C36.2857 19.2395 36.4522 19.9327 36.478 20.638C36.5037 21.3433 36.3881 22.0466 36.138 22.7072C35.8879 23.3677 35.5081 23.9723 35.0208 24.4859C34.5335 24.9994 33.9484 25.4117 33.2994 25.6987C32.6504 25.9858 31.9505 26.1418 31.2403 26.1579C30.5301 26.174 29.8237 26.0497 29.1623 25.7923C28.5008 25.5349 27.8974 25.1496 27.3871 24.6586C26.8768 24.1676 26.4697 23.5808 26.1896 22.9322L21.7081 12.6012C21.6698 12.637 21.6316 12.6728 21.5955 12.7131L8.20418 25.9544C7.3876 26.7641 6.28086 27.2184 5.12721 27.2177ZM16.8314 4.9511C16.4193 4.94834 16.014 5.05522 15.6575 5.26064C15.301 5.46605 15.0063 5.76252 14.8041 6.11926L5.07766 22.8561C5.07037 22.8682 5.06806 22.8827 5.07121 22.8964C5.07435 22.9102 5.08271 22.9222 5.09455 22.93C5.10541 22.9379 5.11876 22.9417 5.1322 22.9407C5.14563 22.9396 5.15825 22.9339 5.16776 22.9244L18.5546 9.67967C18.9811 9.25878 19.449 8.88132 19.9512 8.55292L19.0051 6.3643C18.8365 5.96261 18.5564 5.61685 18.1974 5.36741C17.8384 5.11797 17.4154 4.97513 16.9778 4.95557C16.9294 4.95222 16.881 4.9511 16.8314 4.9511ZM25.9001 11.4632L30.1383 21.2415C30.1889 21.3763 30.2668 21.4993 30.3671 21.603C30.4674 21.7067 30.5881 21.7888 30.7216 21.8444C30.8552 21.9 30.9987 21.9278 31.1435 21.9261C31.2883 21.9245 31.4312 21.8933 31.5634 21.8347C31.6956 21.776 31.8143 21.6911 31.9121 21.5851C32.01 21.4791 32.085 21.3543 32.1324 21.2184C32.1799 21.0825 32.1988 20.9384 32.188 20.795C32.1773 20.6515 32.137 20.5118 32.0698 20.3844L29.1415 14.0625C28.844 13.4072 28.3956 12.8306 27.8326 12.3791C27.2696 11.9276 26.6076 11.6139 25.9001 11.4632Z" fill="#8861E0"/>
<path d="M5.12721 27.2177C4.36184 27.2171 3.61009 27.0165 2.94743 26.636C2.28477 26.2555 1.73452 25.7085 1.3519 25.0499C0.969281 24.3914 0.767765 23.6444 0.767578 22.8841C0.767391 22.1237 0.96854 21.3766 1.35083 20.7179L11.0773 3.98211C11.6945 2.92005 12.5969 2.04944 13.6835 1.46756C14.7701 0.885673 15.9982 0.615445 17.2305 0.687072C18.4628 0.758699 19.6508 1.16936 20.6617 1.87316C21.6726 2.57696 22.4666 3.54617 22.9549 4.67249L24.0181 7.12293C25.8775 6.94113 27.7478 7.33987 29.3684 8.26362C30.989 9.18737 32.2794 10.5902 33.0598 12.2767L35.9881 18.5986C36.2857 19.2395 36.4522 19.9327 36.478 20.638C36.5037 21.3433 36.3881 22.0466 36.138 22.7072C35.8879 23.3677 35.5081 23.9723 35.0208 24.4859C34.5335 24.9994 33.9484 25.4117 33.2994 25.6987C32.6504 25.9858 31.9505 26.1418 31.2403 26.1579C30.5301 26.174 29.8237 26.0497 29.1623 25.7923C28.5008 25.5349 27.8974 25.1496 27.3871 24.6586C26.8768 24.1676 26.4697 23.5808 26.1896 22.9322L21.7081 12.6012C21.6698 12.637 21.6316 12.6728 21.5955 12.7131L8.20418 25.9544C7.3876 26.7641 6.28086 27.2184 5.12721 27.2177ZM16.8314 4.9511C16.4193 4.94834 16.014 5.05522 15.6575 5.26064C15.301 5.46605 15.0063 5.76252 14.8041 6.11926L5.07766 22.8561C5.07037 22.8682 5.06806 22.8827 5.07121 22.8964C5.07435 22.9102 5.08271 22.9222 5.09455 22.93C5.10541 22.9379 5.11876 22.9417 5.1322 22.9407C5.14563 22.9396 5.15825 22.9339 5.16776 22.9244L18.5546 9.67967C18.9811 9.25878 19.449 8.88132 19.9512 8.55292L19.0051 6.3643C18.8365 5.96261 18.5564 5.61685 18.1974 5.36741C17.8384 5.11797 17.4154 4.97513 16.9778 4.95557C16.9294 4.95222 16.881 4.9511 16.8314 4.9511ZM25.9001 11.4632L30.1383 21.2415C30.1889 21.3763 30.2668 21.4993 30.3671 21.603C30.4674 21.7067 30.5881 21.7888 30.7216 21.8444C30.8552 21.9 30.9987 21.9278 31.1435 21.9261C31.2883 21.9245 31.4312 21.8933 31.5634 21.8347C31.6956 21.776 31.8143 21.6911 31.9121 21.5851C32.01 21.4791 32.085 21.3543 32.1324 21.2184C32.1799 21.0825 32.1988 20.9384 32.188 20.795C32.1773 20.6515 32.137 20.5118 32.0698 20.3844L29.1415 14.0625C28.844 13.4072 28.3956 12.8306 27.8326 12.3791C27.2696 11.9276 26.6076 11.6139 25.9001 11.4632Z" fill="url(#paint0_linear_874_1635)"/>
<g style="mix-blend-mode:color-burn" opacity="0.3">
<mask id="mask0_874_1635" style="mask-type:luminance" maskUnits="userSpaceOnUse" x="21" y="11" width="7" height="6">
<path d="M21.7148 12.6012C22.2063 12.0019 22.8739 11.5699 23.6244 11.3657C24.3749 11.1615 25.1709 11.1952 25.9012 11.4622C26.3419 12.4759 26.7834 13.4896 27.2257 14.5034L23.2961 16.278L21.7148 12.6012Z" fill="white"/>
</mask>
<g mask="url(#mask0_874_1635)">
<path d="M23.334 16.2779L27.2196 14.7192V16.2779H23.334Z" fill="black"/>
<path d="M23.2715 16.2781L27.2191 14.6948V14.7194L23.3334 16.2781H23.2715Z" fill="black"/>
<path d="M23.209 16.278L27.2185 14.6689V14.6947L23.2709 16.278H23.209Z" fill="#FEFEFE"/>
<path d="M23.1504 16.2782L27.2219 14.6445V14.6691L23.2123 16.2782H23.1504Z" fill="#FDFDFD"/>
<path d="M23.0879 16.2779L27.2213 14.6196V14.6442L23.1498 16.2779H23.0879Z" fill="#FCFCFC"/>
<path d="M23.0234 16.2781L27.2188 14.5952V14.6198L23.0854 16.2781H23.0234Z" fill="#FBFBFB"/>
<path d="M22.9648 16.2779L27.2221 14.5693V14.5951L23.0268 16.2779H22.9648Z" fill="#FAFAFA"/>
<path d="M22.8984 16.2781L27.2188 14.5449V14.5695L22.9615 16.2781H22.8984Z" fill="#F9F9F9"/>
<path d="M22.8398 16.2779L27.2222 14.52V14.5446L22.9018 16.2779H22.8398Z" fill="#F8F8F8"/>
<path d="M22.7773 16.2781L27.2216 14.4956V14.5202L22.8393 16.2781H22.7773Z" fill="#F7F7F7"/>
<path d="M22.7148 16.2779L27.221 14.4697V14.4955L22.7768 16.2779H22.7148Z" fill="#F6F6F6"/>
<path d="M22.6523 16.2781L27.2205 14.4453V14.4699L22.7143 16.2781H22.6523Z" fill="#F5F5F5"/>
<path d="M22.5879 16.2778L27.218 14.4204V14.445L22.6498 16.2778H22.5879Z" fill="#F4F4F4"/>
<path d="M22.5254 16.278L27.2174 14.396V14.4206L22.5873 16.278H22.5254Z" fill="#F3F3F3"/>
<path d="M22.4668 16.2779L27.2208 14.3701V14.3959L22.5287 16.2779H22.4668Z" fill="#F2F2F2"/>
<path d="M22.4004 16.2781L27.2174 14.3457V14.3703L22.4635 16.2781H22.4004Z" fill="#F1F1F1"/>
<path d="M22.3418 16.2778L27.2208 14.3208V14.3454L22.4037 16.2778H22.3418Z" fill="#F0F0F0"/>
<path d="M22.2793 16.278L27.2202 14.2964V14.321L22.3412 16.278H22.2793Z" fill="#EFEFEF"/>
<path d="M22.2148 16.2779L27.2177 14.2705V14.2962L22.2768 16.2779H22.2148Z" fill="#EEEEEE"/>
<path d="M22.1562 16.2781L27.2211 14.2461V14.2707L22.2182 16.2781H22.1562Z" fill="#EDEDED"/>
<path d="M22.0938 16.2778L27.2205 14.2212V14.2458L22.1557 16.2778H22.0938Z" fill="#ECECEC"/>
<path d="M22.0312 16.278L27.22 14.1968V14.2214L22.0932 16.278H22.0312Z" fill="#EBEBEB"/>
<path d="M21.9688 16.2778L27.2205 14.1709V14.1966L22.0318 16.2778H21.9688Z" fill="#EAEAEA"/>
<path d="M21.9062 16.278L27.22 14.1465V14.1711L21.9682 16.278H21.9062Z" fill="#E9E9E9"/>
<path d="M21.8457 16.2777L27.2214 14.1216V14.1462L21.9076 16.2777H21.8457Z" fill="#E8E8E8"/>
<path d="M21.7832 16.2781L27.2208 14.0962V14.1219L21.8451 16.2781H21.7832Z" fill="#E7E7E7"/>
<path d="M21.7207 16.2778L27.2203 14.0713V14.0959L21.7826 16.2778H21.7207Z" fill="#E6E6E6"/>
<path d="M21.7148 16.2556L27.22 14.0469V14.0715L21.7205 16.278H21.7148V16.2556Z" fill="#E5E5E5"/>
<path d="M21.7148 16.2296L27.22 14.022V14.0466L21.7148 16.2553V16.2296Z" fill="#E4E4E4"/>
<path d="M21.7148 16.2053L27.22 13.9966V14.0223L21.7148 16.23V16.2053Z" fill="#E3E3E3"/>
<path d="M21.7148 16.1804L27.22 13.9717V13.9963L21.7148 16.2051V16.1804Z" fill="#E2E2E2"/>
<path d="M21.7148 16.156L27.22 13.9473V13.9719L21.7148 16.1806V16.156Z" fill="#E1E1E1"/>
<path d="M21.7148 16.13L27.22 13.9224V13.947L21.7148 16.1557V16.13Z" fill="#E0E0E0"/>
<path d="M21.7148 16.1057L27.22 13.897V13.9227L21.7148 16.1303V16.1057Z" fill="#DFDFDF"/>
<path d="M21.7148 16.0808L27.22 13.8721V13.8967L21.7148 16.1054V16.0808Z" fill="#DEDEDE"/>
<path d="M21.7148 16.0564L27.22 13.8477V13.8723L21.7148 16.081V16.0564Z" fill="#DDDDDD"/>
<path d="M21.7148 16.0309L27.22 13.8232V13.8479L21.7148 16.0566V16.0309Z" fill="#DCDCDC"/>
<path d="M21.7148 16.0061L27.22 13.7974V13.8231L21.7148 16.0307V16.0061Z" fill="#DBDBDB"/>
<path d="M21.7148 15.9812L27.22 13.7725V13.7971L21.7148 16.0058V15.9812Z" fill="#DADADA"/>
<path d="M21.7148 15.9568L27.22 13.748V13.7727L21.7148 15.9814V15.9568Z" fill="#D9D9D9"/>
<path d="M21.7148 15.9308L27.22 13.7231V13.7478L21.7148 15.9565V15.9308Z" fill="#D8D8D8"/>
<path d="M21.7148 15.9065L27.22 13.6978V13.7235L21.7148 15.9311V15.9065Z" fill="#D7D7D7"/>
<path d="M21.7148 15.8816L27.22 13.6729V13.6975L21.7148 15.9062V15.8816Z" fill="#D6D6D6"/>
<path d="M21.7148 15.8572L27.22 13.6484V13.6731L21.7148 15.8818V15.8572Z" fill="#D5D5D5"/>
<path d="M21.7148 15.8317L27.22 13.624V13.6486L21.7148 15.8574V15.8317Z" fill="#D4D4D4"/>
<path d="M21.7148 15.8069L27.22 13.5981V13.6239L21.7148 15.8315V15.8069Z" fill="#D3D3D3"/>
<path d="M21.7148 15.782L27.22 13.5732V13.5979L21.7148 15.8066V15.782Z" fill="#D2D2D2"/>
<path d="M21.7148 15.7565L27.22 13.5488V13.5734L21.7148 15.7822V15.7565Z" fill="#D1D1D1"/>
<path d="M21.7148 15.7321L27.22 13.5244V13.549L21.7148 15.7567V15.7321Z" fill="#D0D0D0"/>
<path d="M21.7148 15.7073L27.22 13.4985V13.5243L21.7148 15.7319V15.7073Z" fill="#CFCFCF"/>
<path d="M21.7148 15.6829L27.22 13.4741V13.4987L21.7148 15.7075V15.6829Z" fill="#CECECE"/>
<path d="M21.7148 15.658L27.22 13.4492V13.4738L21.7148 15.6826V15.658Z" fill="#CDCDCD"/>
<path d="M21.7148 15.6324L27.22 13.4248V13.4494L21.7148 15.6582V15.6324Z" fill="#CCCCCC"/>
<path d="M21.7148 15.6077L27.22 13.3989V13.4247L21.7148 15.6323V15.6077Z" fill="#CBCBCB"/>
<path d="M21.7148 15.5833L27.22 13.3745V13.3991L21.7148 15.6079V15.5833Z" fill="#CACACA"/>
<path d="M21.7148 15.5572L27.22 13.3496V13.3742L21.7148 15.583V15.5572Z" fill="#C9C9C9"/>
<path d="M21.7148 15.5328L27.22 13.3252V13.3498L21.7148 15.5574V15.5328Z" fill="#C8C8C8"/>
<path d="M21.7148 15.5081L27.22 13.2993V13.3251L21.7148 15.5327V15.5081Z" fill="#C7C7C7"/>
<path d="M21.7148 15.4837L27.22 13.2749V13.2995L21.7148 15.5083V15.4837Z" fill="#C6C6C6"/>
<path d="M21.7148 15.4576L27.22 13.25V13.2746L21.7148 15.4834V15.4576Z" fill="#C5C5C5"/>
<path d="M21.7148 15.4332L27.22 13.2256V13.2502L21.7148 15.4578V15.4332Z" fill="#C4C4C4"/>
<path d="M21.7148 15.4085L27.22 13.1997V13.2254L21.7148 15.4331V15.4085Z" fill="#C3C3C3"/>
<path d="M21.7148 15.3841L27.22 13.1753V13.1999L21.7148 15.4087V15.3841Z" fill="#C2C2C2"/>
<path d="M21.7148 15.358L27.22 13.1504V13.175L21.7148 15.3838V15.358Z" fill="#C1C1C1"/>
<path d="M21.7148 15.3336L27.22 13.126V13.1506L21.7148 15.3582V15.3336Z" fill="#C0C0C0"/>
<path d="M21.7148 15.3089L27.22 13.1001V13.1258L21.7148 15.3335V15.3089Z" fill="#BFBFBF"/>
<path d="M21.7148 15.2844L27.22 13.0757V13.1003L21.7148 15.3091V15.2844Z" fill="#BEBEBE"/>
<path d="M21.7148 15.2584L27.22 13.0508V13.0754L21.7148 15.2842V15.2584Z" fill="#BDBDBD"/>
<path d="M21.7148 15.234L27.22 13.0264V13.051L21.7148 15.2586V15.234Z" fill="#BCBCBC"/>
<path d="M21.7148 15.2092L27.22 13.0005V13.0262L21.7148 15.2339V15.2092Z" fill="#BBBBBB"/>
<path d="M21.7148 15.1848L27.22 12.9761V13.0007L21.7148 15.2094V15.1848Z" fill="#BABABA"/>
<path d="M21.7148 15.1588L27.22 12.9512V12.9758L21.7148 15.1845V15.1588Z" fill="#B9B9B9"/>
<path d="M21.7148 15.1345L27.22 12.9258V12.9515L21.7148 15.1592V15.1345Z" fill="#B8B8B8"/>
<path d="M21.7148 15.1096L27.22 12.9009V12.9255L21.7148 15.1343V15.1096Z" fill="#B7B7B7"/>
<path d="M21.7148 15.0852L27.22 12.8765V12.9011L21.7148 15.1098V15.0852Z" fill="#B6B6B6"/>
<path d="M21.7148 15.0592L27.22 12.8516V12.8762L21.7148 15.0849V15.0592Z" fill="#B5B5B5"/>
<path d="M21.7148 15.0349L27.22 12.8262V12.8519L21.7148 15.0595V15.0349Z" fill="#B4B4B4"/>
<path d="M21.7148 15.01L27.22 12.8013V12.8259L21.7148 15.0346V15.01Z" fill="#B3B3B3"/>
<path d="M21.7148 14.9845L27.22 12.7769V12.8015L21.7148 15.0102V14.9845Z" fill="#B2B2B2"/>
<path d="M21.7148 14.9596L27.22 12.752V12.7766L21.7148 14.9842V14.9596Z" fill="#B1B1B1"/>
<path d="M21.7148 14.9353L27.22 12.7266V12.7523L21.7148 14.9599V14.9353Z" fill="#B0B0B0"/>
<path d="M21.7148 14.9104L27.22 12.7017V12.7263L21.7148 14.935V14.9104Z" fill="#AFAFAF"/>
<path d="M21.7148 14.8849L27.22 12.6772V12.7019L21.7148 14.9106V14.8849Z" fill="#AEAEAE"/>
<path d="M21.7148 14.8605L27.22 12.6528V12.6774L21.7148 14.8851V14.8605Z" fill="#ADADAD"/>
<path d="M21.7148 14.8357L27.22 12.627V12.6527L21.7148 14.8603V14.8357Z" fill="#ACACAC"/>
<path d="M21.7148 14.8108L27.22 12.6021V12.6267L21.7148 14.8354V14.8108Z" fill="#ABABAB"/>
<path d="M21.7148 14.7853L27.22 12.5776V12.6023L21.7148 14.811V14.7853Z" fill="#AAAAAA"/>
<path d="M21.7148 14.7609L27.22 12.5532V12.5778L21.7148 14.7855V14.7609Z" fill="#A9A9A9"/>
<path d="M21.7148 14.7361L27.22 12.5273V12.5531L21.7148 14.7607V14.7361Z" fill="#A8A8A8"/>
<path d="M21.7148 14.7112L27.22 12.5024V12.5271L21.7148 14.7358V14.7112Z" fill="#A7A7A7"/>
<path d="M21.7148 14.6857L27.22 12.478V12.5026L21.7148 14.7114V14.6857Z" fill="#A6A6A6"/>
<path d="M21.7148 14.6613L27.22 12.4536V12.4782L21.7148 14.6859V14.6613Z" fill="#A5A5A5"/>
<path d="M21.7148 14.6365L27.22 12.4277V12.4535L21.7148 14.6611V14.6365Z" fill="#A4A4A4"/>
<path d="M21.7148 14.6116L27.22 12.4028V12.4274L21.7148 14.6362V14.6116Z" fill="#A3A3A3"/>
<path d="M21.7148 14.5861L27.22 12.3784V12.403L21.7148 14.6118V14.5861Z" fill="#A2A2A2"/>
<path d="M21.7148 14.5616L27.22 12.354V12.3786L21.7148 14.5863V14.5616Z" fill="#A1A1A1"/>
<path d="M21.7148 14.5369L27.22 12.3281V12.3539L21.7148 14.5615V14.5369Z" fill="#A0A0A0"/>
<path d="M21.7148 14.512L27.22 12.3032V12.3278L21.7148 14.5366V14.512Z" fill="#9F9F9F"/>
<path d="M21.7148 14.4864L27.22 12.2788V12.3034L21.7148 14.5122V14.4864Z" fill="#9E9E9E"/>
<path d="M21.7148 14.4617L27.22 12.2529V12.2787L21.7148 14.4863V14.4617Z" fill="#9D9D9D"/>
<path d="M21.7148 14.4373L27.22 12.2285V12.2531L21.7148 14.4619V14.4373Z" fill="#9C9C9C"/>
<path d="M21.7148 14.4129L27.22 12.2041V12.2287L21.7148 14.4375V14.4129Z" fill="#9B9B9B"/>
<path d="M21.7148 14.3868L27.22 12.1792V12.2038L21.7148 14.4126V14.3868Z" fill="#9A9A9A"/>
<path d="M21.7148 14.3621L27.22 12.1533V12.1791L21.7148 14.3867V14.3621Z" fill="#999999"/>
<path d="M21.7148 14.3377L27.22 12.1289V12.1535L21.7148 14.3623V14.3377Z" fill="#989898"/>
<path d="M21.7148 14.3128L27.22 12.104V12.1286L21.7148 14.3374V14.3128Z" fill="#979797"/>
<path d="M21.7148 14.2872L27.22 12.0796V12.1042L21.7148 14.313V14.2872Z" fill="#969696"/>
<path d="M21.7148 14.263L27.22 12.0542V12.0799L21.7148 14.2876V14.263Z" fill="#959595"/>
<path d="M21.7148 14.2381L27.22 12.0293V12.0539L21.7148 14.2627V14.2381Z" fill="#949494"/>
<path d="M21.7148 14.2136L27.22 12.0049V12.0295L21.7148 14.2383V14.2136Z" fill="#939393"/>
<path d="M21.7148 14.1876L27.22 11.98V12.0046L21.7148 14.2134V14.1876Z" fill="#929292"/>
<path d="M21.7148 14.1629L27.22 11.9541V11.9798L21.7148 14.1875V14.1629Z" fill="#919191"/>
<path d="M21.7148 14.1384L27.22 11.9297V11.9543L21.7148 14.1631V14.1384Z" fill="#909090"/>
<path d="M21.7148 14.114L27.22 11.9053V11.9299L21.7148 14.1386V14.114Z" fill="#8F8F8F"/>
<path d="M21.7148 14.088L27.22 11.8804V11.905L21.7148 14.1137V14.088Z" fill="#8E8E8E"/>
<path d="M21.7148 14.0637L27.22 11.855V11.8807L21.7148 14.0884V14.0637Z" fill="#8E8E8C"/>
<path d="M21.7148 14.0388L27.22 11.8301V11.8547L21.7148 14.0635V14.0388Z" fill="#8D8D8B"/>
<path d="M21.7148 14.0144L27.22 11.8057V11.8303L21.7148 14.039V14.0144Z" fill="#8C8C8A"/>
<path d="M21.7148 13.9884L27.22 11.7808V11.8054L21.7148 14.0141V13.9884Z" fill="#8B8B89"/>
<path d="M21.7148 13.9641L27.22 11.7554V11.7811L21.7148 13.9887V13.9641Z" fill="#8A8A88"/>
<path d="M21.7148 13.9392L27.22 11.7305V11.7551L21.7148 13.9638V13.9392Z" fill="#898987"/>
<path d="M21.7148 13.9148L27.22 11.7061V11.7307L21.7148 13.9394V13.9148Z" fill="#888886"/>
<path d="M21.7148 13.8888L27.22 11.6812V11.7058L21.7148 13.9145V13.8888Z" fill="#878785"/>
<path d="M21.7148 13.8645L27.22 11.6558V11.6815L21.7148 13.8891V13.8645Z" fill="#868684"/>
<path d="M21.7148 13.8401L27.22 11.6313V11.656L21.7148 13.8647V13.8401Z" fill="#858583"/>
<path d="M21.7148 13.8141L27.22 11.6064V11.6311L21.7148 13.8398V13.8141Z" fill="#848482"/>
<path d="M21.7148 13.7897L27.22 11.582V11.6066L21.7148 13.8143V13.7897Z" fill="#838381"/>
<path d="M21.7148 13.7649L27.22 11.5562V11.5819L21.7148 13.7895V13.7649Z" fill="#828280"/>
<path d="M21.7148 13.74L27.22 11.5312V11.5559L21.7148 13.7646V13.74Z" fill="#81817F"/>
<path d="M21.7148 13.7145L27.22 11.5068V11.5315L21.7148 13.7402V13.7145Z" fill="#80807E"/>
<path d="M21.7148 13.6897L27.22 11.481V11.5067L21.7148 13.7143V13.6897Z" fill="#7F7F7D"/>
<path d="M21.7148 13.6653L27.22 11.4565V11.4812L21.7148 13.6899V13.6653Z" fill="#7E7E7C"/>
<path d="M21.7148 13.6409L27.22 11.4321V11.4567L21.7148 13.6655V13.6409Z" fill="#7D7D7B"/>
<path d="M21.7148 13.6149L27.22 11.4072V11.4318L21.7148 13.6406V13.6149Z" fill="#7C7C7A"/>
<path d="M21.7148 13.5901L27.22 11.3813V11.4071L21.7148 13.6147V13.5901Z" fill="#7B7B79"/>
<path d="M21.7148 13.5657L27.22 11.3569V11.3816L21.7148 13.5903V13.5657Z" fill="#7A7A78"/>
<path d="M21.7148 13.5413L27.22 11.3325V11.3571L21.7148 13.5659V13.5413Z" fill="#797977"/>
<path d="M21.7148 13.5153L27.22 11.3076V11.3322L21.7148 13.541V13.5153Z" fill="#787876"/>
<path d="M21.7148 13.4908L27.22 11.2832V11.3078L21.7148 13.5155V13.4908Z" fill="#777775"/>
<path d="M21.7148 13.4661L27.22 11.2573V11.2831L21.7148 13.4907V13.4661Z" fill="#767674"/>
<path d="M21.7148 13.4417L27.22 11.2329V11.2575L21.7148 13.4663V13.4417Z" fill="#757573"/>
<path d="M21.7148 13.4161L27.22 11.2085V11.2331L21.7148 13.4419V13.4161Z" fill="#747472"/>
<path d="M21.7148 13.3914L27.22 11.1826V11.2084L21.7148 13.416V13.3914Z" fill="#737371"/>
<path d="M21.7148 13.3665L27.22 11.1577V11.1823L21.7148 13.3911V13.3665Z" fill="#727270"/>
<path d="M21.7148 13.3416L27.22 11.1328V11.1574L21.7148 13.3662V13.3416Z" fill="#71716F"/>
<path d="M21.7148 13.3155L27.22 11.1079V11.1325L21.7148 13.3413V13.3155Z" fill="#70706E"/>
<path d="M21.7148 13.2913L27.22 11.0825V11.1083L21.7148 13.3159V13.2913Z" fill="#6F6F6D"/>
<path d="M21.7148 13.2674L27.22 11.0586V11.0832L21.7148 13.292V13.2674Z" fill="#6E6E6C"/>
<path d="M21.7148 13.2412L27.1682 11.0537H27.22V11.0582L21.7148 13.2669V13.2412Z" fill="#6D6D6B"/>
<path d="M21.7148 13.2166L27.1063 11.0537H27.1682L21.7148 13.2412V13.2166Z" fill="#6C6C6A"/>
<path d="M21.7148 13.192L27.0443 11.0537H27.1063L21.7148 13.2166V13.192Z" fill="#6B6B69"/>
<path d="M21.7148 13.1674L26.9824 11.0537H27.0443L21.7148 13.192V13.1674Z" fill="#6A6A68"/>
<path d="M21.7148 13.1416L26.9205 11.0537H26.9824L21.7148 13.1674V13.1416Z" fill="#696967"/>
<path d="M21.7148 13.117L26.8585 11.0537H26.9205L21.7148 13.1416V13.117Z" fill="#686866"/>
<path d="M21.7148 13.0924L26.7966 11.0537H26.8585L21.7148 13.117V13.0924Z" fill="#676765"/>
<path d="M21.7148 13.0678L26.7335 11.0537H26.7966L21.7148 13.0924V13.0678Z" fill="#666664"/>
<path d="M21.7148 13.042L26.6716 11.0537H26.7335L21.7148 13.0678V13.042Z" fill="#656563"/>
<path d="M21.7148 13.0174L26.6096 11.0537H26.6716L21.7148 13.042V13.0174Z" fill="#646462"/>
<path d="M21.7148 12.9928L26.5477 11.0537H26.6096L21.7148 13.0174V12.9928Z" fill="#636361"/>
<path d="M21.7148 12.9682L26.4857 11.0537H26.5477L21.7148 12.9928V12.9682Z" fill="#626260"/>
<path d="M21.7148 12.9425L26.4238 11.0537H26.4857L21.7148 12.9682V12.9425Z" fill="#61615F"/>
<path d="M21.7148 12.9178L26.3618 11.0537H26.4238L21.7148 12.9425V12.9178Z" fill="#60605E"/>
<path d="M21.7148 12.8932L26.2999 11.0537H26.3618L21.7148 12.9178V12.8932Z" fill="#5F5F5D"/>
<path d="M21.7148 12.8686L26.2368 11.0537H26.2999L21.7148 12.8932V12.8686Z" fill="#5E5E5C"/>
<path d="M21.7148 12.8429L26.1749 11.0537H26.2368L21.7148 12.8686V12.8429Z" fill="#5D5D5B"/>
<path d="M21.7148 12.8183L26.1129 11.0537H26.1749L21.7148 12.8429V12.8183Z" fill="#5C5C5A"/>
<path d="M21.7148 12.7936L26.051 11.0537H26.1129L21.7148 12.8183V12.7936Z" fill="#5B5B59"/>
<path d="M21.7148 12.769L25.989 11.0537H26.051L21.7148 12.7936V12.769Z" fill="#5A5A58"/>
<path d="M21.7148 12.7433L25.9271 11.0537H25.989L21.7148 12.769V12.7433Z" fill="#595957"/>
<path d="M21.7148 12.7187L25.8651 11.0537H25.9271L21.7148 12.7433V12.7187Z" fill="#585856"/>
<path d="M21.7148 12.6941L25.8021 11.0537H25.8651L21.7148 12.7187V12.6941Z" fill="#575755"/>
<path d="M21.7148 12.6694L25.7401 11.0537H25.8021L21.7148 12.6941V12.6694Z" fill="#565654"/>
<path d="M21.7148 12.6437L25.6782 11.0537H25.7401L21.7148 12.6694V12.6437Z" fill="#555553"/>
<path d="M21.7148 12.6191L25.6162 11.0537H25.6782L21.7148 12.6437V12.6191Z" fill="#545452"/>
<path d="M21.7148 12.5945L25.5543 11.0537H25.6162L21.7148 12.6191V12.5945Z" fill="#535351"/>
<path d="M21.7148 12.5699L25.4923 11.0537H25.5543L21.7148 12.5945V12.5699Z" fill="#525250"/>
<path d="M21.7148 12.5441L25.4304 11.0537H25.4923L21.7148 12.5699V12.5441Z" fill="#51514F"/>
<path d="M21.7148 12.5195L25.3673 11.0537H25.4304L21.7148 12.5441V12.5195Z" fill="#50504E"/>
<path d="M21.7148 12.4949L25.3054 11.0537H25.3673L21.7148 12.5195V12.4949Z" fill="#4F4F4D"/>
<path d="M21.7148 12.4703L25.2434 11.0537H25.3054L21.7148 12.4949V12.4703Z" fill="#4E4E4C"/>
<path d="M21.7148 12.4445L25.1815 11.0537H25.2434L21.7148 12.4703V12.4445Z" fill="#4D4D4B"/>
<path d="M21.7148 12.4199L25.1196 11.0537H25.1815L21.7148 12.4445V12.4199Z" fill="#4C4C4A"/>
<path d="M21.7148 12.3953L25.0576 11.0537H25.1196L21.7148 12.4199V12.3953Z" fill="#4B4B49"/>
<path d="M21.7148 12.3707L24.9957 11.0537H25.0576L21.7148 12.3953V12.3707Z" fill="#4A4A48"/>
<path d="M21.7148 12.345L24.9337 11.0537H24.9957L21.7148 12.3707V12.345Z" fill="#494947"/>
<path d="M21.7148 12.3203L24.8706 11.0537H24.9337L21.7148 12.345V12.3203Z" fill="#484846"/>
<path d="M21.7148 12.2957L24.8087 11.0537H24.8706L21.7148 12.3203V12.2957Z" fill="#474745"/>
<path d="M21.7148 12.2711L24.7468 11.0537H24.8087L21.7148 12.2957V12.2711Z" fill="#464644"/>
<path d="M21.7148 12.2454L24.6848 11.0537H24.7468L21.7148 12.2711V12.2454Z" fill="#454543"/>
<path d="M21.7148 12.2207L24.6229 11.0537H24.6848L21.7148 12.2454V12.2207Z" fill="#444442"/>
<path d="M21.7148 12.1961L24.5609 11.0537H24.6229L21.7148 12.2207V12.1961Z" fill="#434341"/>
<path d="M21.7148 12.1715L24.499 11.0537H24.5609L21.7148 12.1961V12.1715Z" fill="#424240"/>
<path d="M21.7148 12.1458L24.437 11.0537H24.499L21.7148 12.1715V12.1458Z" fill="#41413F"/>
<path d="M21.7148 12.1212L24.3751 11.0537H24.437L21.7148 12.1458V12.1212Z" fill="#40403E"/>
<path d="M21.7148 12.0965L24.312 11.0537H24.3751L21.7148 12.1212V12.0965Z" fill="#3F3F3D"/>
<path d="M21.7148 12.0708L24.2501 11.0537H24.312L21.7148 12.0965V12.0708Z" fill="#3E3E3C"/>
<path d="M21.7148 12.0462L24.1881 11.0537H24.2501L21.7148 12.0708V12.0462Z" fill="#3D3D3B"/>
<path d="M21.7148 12.0216L24.1262 11.0537H24.1881L21.7148 12.0462V12.0216Z" fill="#3C3C3A"/>
<path d="M21.7148 11.997L24.0642 11.0537H24.1262L21.7148 12.0216V11.997Z" fill="#3B3B39"/>
<path d="M21.7148 11.9712L24.0023 11.0537H24.0642L21.7148 11.997V11.9712Z" fill="#3A3A38"/>
<path d="M21.7148 11.9466L23.9404 11.0537H24.0023L21.7148 11.9712V11.9466Z" fill="#393937"/>
<path d="M21.7148 11.922L23.8773 11.0537H23.9404L21.7148 11.9466V11.922Z" fill="#383836"/>
<path d="M21.7148 11.8974L23.8153 11.0537H23.8773L21.7148 11.922V11.8974Z" fill="#373735"/>
<path d="M21.7148 11.8716L23.7534 11.0537H23.8153L21.7148 11.8974V11.8716Z" fill="#363634"/>
<path d="M21.7148 11.847L23.6914 11.0537H23.7534L21.7148 11.8716V11.847Z" fill="#353533"/>
<path d="M21.7148 11.8224L23.6295 11.0537H23.6914L21.7148 11.847V11.8224Z" fill="#343432"/>
<path d="M21.7148 11.7978L23.5676 11.0537H23.6295L21.7148 11.8224V11.7978Z" fill="#333331"/>
<path d="M21.7148 11.7721L23.5056 11.0537H23.5676L21.7148 11.7978V11.7721Z" fill="#323230"/>
<path d="M21.7148 11.7474L23.4425 11.0537H23.5056L21.7148 11.7721V11.7474Z" fill="#31312F"/>
<path d="M21.7148 11.7228L23.3806 11.0537H23.4425L21.7148 11.7474V11.7228Z" fill="#30302E"/>
<path d="M21.7148 11.6982L23.3186 11.0537H23.3806L21.7148 11.7228V11.6982Z" fill="#2F2F2D"/>
<path d="M21.7148 11.6734L23.2567 11.0537H23.3186L21.7148 11.6992V11.6734Z" fill="#2E2E2C"/>
<path d="M21.7148 11.6488L23.1948 11.0537H23.2567L21.7148 11.6734V11.6488Z" fill="#2D2D2B"/>
<path d="M21.7148 11.6241L23.1328 11.0537H23.1948L21.7148 11.6488V11.6241Z" fill="#2C2C2A"/>
<path d="M21.7148 11.5995L23.0709 11.0537H23.1328L21.7148 11.6241V11.5995Z" fill="#2B2B29"/>
<path d="M21.7148 11.5737L23.0099 11.0537H23.0718L21.7148 11.5995V11.5737Z" fill="#2A2A28"/>
<path d="M21.7148 11.549L22.9467 11.0537H23.0099L21.7148 11.5737V11.549Z" fill="#292927"/>
<path d="M21.7148 11.5244L22.8847 11.0537H22.9467L21.7148 11.549V11.5244Z" fill="#282826"/>
<path d="M21.7148 11.4986L22.8228 11.0537H22.8847L21.7148 11.5244V11.4986Z" fill="#272725"/>
<path d="M21.7148 11.474L22.7608 11.0537H22.8228L21.7148 11.4986V11.474Z" fill="#262624"/>
<path d="M21.7148 11.4493L22.6988 11.0537H22.7608L21.7148 11.474V11.4493Z" fill="#252523"/>
<path d="M21.7148 11.4246L22.6368 11.0537H22.6988L21.7148 11.4493V11.4246Z" fill="#242422"/>
<path d="M21.7148 11.3989L22.5748 11.0537H22.6368L21.7148 11.4246V11.3989Z" fill="#232321"/>
<path d="M21.7148 11.3742L22.5128 11.0537H22.5748L21.7148 11.3989V11.3742Z" fill="#222220"/>
<path d="M21.7148 11.3496L22.4497 11.0537H22.5128L21.7148 11.3742V11.3496Z" fill="#21211F"/>
<path d="M21.7148 11.3249L22.3877 11.0537H22.4497L21.7148 11.3496V11.3249Z" fill="#20201E"/>
<path d="M21.7148 11.2991L22.3257 11.0537H22.3877L21.7148 11.3249V11.2991Z" fill="#1F1F1D"/>
<path d="M21.7148 11.2745L22.2637 11.0537H22.3257L21.7148 11.2991V11.2745Z" fill="#1E1E1C"/>
<path d="M21.7148 11.2498L22.2017 11.0537H22.2637L21.7148 11.2745V11.2498Z" fill="black"/>
<path d="M22.2017 11.0537L21.7148 11.2498V11.0537H22.2017Z" fill="black"/>
</g>
</g>
<path d="M48.6991 9.91364H46.2495L45.844 11.0807H44.5488L46.7608 4.9624H48.1968L50.4077 11.0807H49.1035L48.6991 9.91364ZM48.3612 8.93235L47.4737 6.3812L46.584 8.93682L48.3612 8.93235Z" fill="black"/>
<path d="M52.1433 10.0738H54.3192V11.0808H50.7422V10.0883L52.8753 7.23506H50.7512V6.22803H54.2933V7.21716L52.1433 10.0738Z" fill="black"/>
<path d="M59.5493 9.01945H55.9824C55.9938 9.33129 56.1266 9.62655 56.3529 9.84298C56.5712 10.0417 56.8588 10.1484 57.1548 10.1406C57.3583 10.1527 57.5608 10.1031 57.7354 9.99845C57.9099 9.89376 58.0484 9.73887 58.1324 9.5543H59.4625C59.3246 10.0157 59.0387 10.4196 58.6482 10.7046C58.2218 11.0124 57.7041 11.1699 57.1773 11.1521C56.7357 11.1592 56.2998 11.052 55.9125 10.8411C55.5437 10.6374 55.2421 10.3319 55.0442 9.96158C54.8291 9.55767 54.7213 9.10592 54.7311 8.64908C54.7228 8.19061 54.8304 7.73741 55.0442 7.33099C55.2394 6.96175 55.5394 6.65752 55.9069 6.45599C56.299 6.24645 56.7389 6.14085 57.1841 6.14941C57.6157 6.14297 58.042 6.24537 58.423 6.44704C58.7844 6.63977 59.0814 6.93294 59.2778 7.29071C59.4856 7.67685 59.5903 8.10947 59.5819 8.54726C59.5842 8.70529 59.5733 8.86322 59.5493 9.01945ZM58.3104 8.19704C58.3128 8.05343 58.2833 7.91105 58.2239 7.78009C58.1645 7.64914 58.0768 7.53284 57.9668 7.43953C57.7383 7.24815 57.4468 7.14699 57.148 7.15532C56.8654 7.14813 56.5905 7.24678 56.3777 7.43169C56.1601 7.6317 56.0239 7.90398 55.9947 8.19704H58.3104Z" fill="black"/>
<path d="M62.1195 6.38116C62.3868 6.23058 62.6896 6.15334 62.9968 6.15738V7.44414H62.6702C62.2828 7.44414 61.9944 7.53589 61.794 7.71604C61.5935 7.89619 61.4989 8.21172 61.4989 8.66153V11.0806H60.2656V6.22787H61.4989V6.98091C61.6514 6.73209 61.8649 6.52575 62.1195 6.38116Z" fill="black"/>
<path d="M65.4962 6.36751C65.7916 6.21616 66.12 6.13931 66.4524 6.14373C66.8492 6.13967 67.2393 6.24586 67.5786 6.45031C67.9225 6.66039 68.2003 6.96195 68.3805 7.32083C68.5839 7.72713 68.6852 8.17632 68.6756 8.62998C68.6843 9.08605 68.5831 9.53758 68.3805 9.94695C68.2005 10.3104 67.923 10.6174 67.5786 10.8343C67.2412 11.0439 66.8504 11.1534 66.4524 11.1498C66.1209 11.157 65.7926 11.0836 65.4962 10.9361C65.2363 10.8031 65.0114 10.6115 64.8396 10.3766V11.0804H63.6074V4.59961H64.8463V6.9404C65.0116 6.69868 65.2349 6.50177 65.4962 6.36751ZM67.2408 7.87806C67.1306 7.67296 66.9643 7.50304 66.761 7.38797C66.5668 7.27695 66.3464 7.2194 66.1224 7.22125C65.9008 7.22088 65.6833 7.28003 65.4928 7.39245C65.2918 7.51045 65.1273 7.68117 65.0175 7.88589C64.8983 8.12224 64.8362 8.38296 64.8362 8.64732C64.8362 8.91168 64.8983 9.1724 65.0175 9.40875C65.1272 9.61412 65.2916 9.78559 65.4928 9.90443C65.6836 10.016 65.901 10.0747 66.1224 10.0745C66.3471 10.0773 66.5682 10.018 66.761 9.90331C66.964 9.7829 67.1299 9.60954 67.2408 9.40203C67.366 9.16486 67.4283 8.89995 67.4221 8.63221C67.4277 8.36955 67.3653 8.10985 67.2408 7.87806Z" fill="black"/>
<path d="M69.3345 7.33132C69.5146 6.97084 69.7928 6.66772 70.1375 6.45632C70.4768 6.25187 70.8669 6.14568 71.2638 6.14973C71.5963 6.14382 71.925 6.22075 72.22 6.37352C72.4775 6.50642 72.7019 6.6949 72.8766 6.92515V6.22806H74.1155V11.0808H72.8766V10.3681C72.7059 10.6055 72.4808 10.7992 72.22 10.9331C71.9225 11.0865 71.591 11.1635 71.2559 11.1569C70.8578 11.1613 70.4668 11.0518 70.1296 10.8414C69.7856 10.6242 69.5082 10.3172 69.3277 9.95408C69.1256 9.54461 69.0248 9.09309 69.0338 8.6371C69.0269 8.18416 69.1301 7.73625 69.3345 7.33132ZM72.7043 7.89078C72.5957 7.68603 72.4309 7.51609 72.229 7.40069C72.0338 7.28774 71.8118 7.22864 71.5859 7.22949C71.3593 7.22744 71.1364 7.28717 70.9416 7.40219C70.7468 7.5172 70.5875 7.6831 70.481 7.88183C70.3554 8.11442 70.2929 8.37548 70.2997 8.63934C70.2943 8.90484 70.3567 9.16737 70.481 9.40245C70.5899 9.61015 70.7544 9.78399 70.9563 9.90484C71.1458 10.0201 71.3637 10.0809 71.5859 10.0805C71.8116 10.0812 72.0335 10.0225 72.229 9.91044C72.4308 9.7944 72.5955 9.62414 72.7043 9.41923C72.8279 9.18327 72.8888 8.91981 72.8811 8.65388C72.889 8.38759 72.8281 8.12371 72.7043 7.88742V7.89078Z" fill="black"/>
<path d="M75.1948 5.44469C75.1263 5.37793 75.0719 5.29827 75.0348 5.21037C74.9976 5.12248 74.9785 5.02811 74.9785 4.93279C74.9785 4.83746 74.9976 4.74309 75.0348 4.6552C75.0719 4.5673 75.1263 4.48764 75.1948 4.42088C75.3434 4.28822 75.5362 4.21484 75.736 4.21484C75.9358 4.21484 76.1285 4.28822 76.2771 4.42088C76.3456 4.48764 76.4 4.5673 76.4371 4.6552C76.4743 4.74309 76.4934 4.83746 76.4934 4.93279C76.4934 5.02811 76.4743 5.12248 76.4371 5.21037C76.4 5.29827 76.3456 5.37793 76.2771 5.44469C76.1285 5.57735 75.9358 5.65073 75.736 5.65073C75.5362 5.65073 75.3434 5.57735 75.1948 5.44469ZM76.3436 6.22794V11.0807H75.1047V6.22794H76.3436Z" fill="black"/>
<path d="M78.5725 11.8727C78.5725 12.4098 78.4389 12.7966 78.1716 13.033C77.9043 13.2695 77.5214 13.3877 77.0228 13.3877H76.4766V12.346H76.828C76.9696 12.3598 77.1112 12.3198 77.2244 12.2341C77.2663 12.1856 77.2979 12.1292 77.3173 12.0682C77.3366 12.0073 77.3433 11.943 77.337 11.8794V6.22774H78.5703L78.5725 11.8727ZM77.4136 5.44449C77.3454 5.37757 77.2913 5.29786 77.2543 5.20998C77.2173 5.12211 77.1983 5.02782 77.1983 4.93258C77.1983 4.83734 77.2173 4.74305 77.2543 4.65518C77.2913 4.5673 77.3454 4.48759 77.4136 4.42067C77.4873 4.35203 77.5738 4.2985 77.6683 4.26317C77.7628 4.22784 77.8634 4.2114 77.9644 4.21479C78.0634 4.21167 78.162 4.22829 78.2545 4.26364C78.347 4.299 78.4314 4.3524 78.5027 4.42067C78.6377 4.55729 78.7134 4.74111 78.7134 4.93258C78.7134 5.12405 78.6377 5.30787 78.5027 5.44449C78.4315 5.51298 78.3471 5.5665 78.2546 5.60188C78.1621 5.63725 78.0634 5.65374 77.9644 5.65037C77.8634 5.65401 77.7627 5.63768 77.6682 5.60234C77.5736 5.567 77.4871 5.51334 77.4136 5.44449Z" fill="black"/>
<path d="M79.5471 7.33132C79.7269 6.97099 80.0047 6.66788 80.349 6.45632C80.6899 6.25086 81.0821 6.14463 81.4809 6.14973C81.8134 6.14382 82.1421 6.22075 82.4371 6.37352C82.6932 6.50509 82.9167 6.6916 83.0914 6.91955V6.22806H84.3303V11.0808H83.0914V10.3681C82.9208 10.6055 82.6957 10.7992 82.4348 10.9331C82.1373 11.0865 81.8059 11.1635 81.4707 11.1569C81.0726 11.1613 80.6816 11.0518 80.3445 10.8414C80.0004 10.6242 79.723 10.3172 79.5426 9.95408C79.3404 9.54461 79.2396 9.09309 79.2486 8.6371C79.2411 8.18434 79.3434 7.73644 79.5471 7.33132ZM82.9169 7.89078C82.8083 7.68603 82.6435 7.51609 82.4416 7.40069C82.2464 7.28774 82.0244 7.22864 81.7985 7.22949C81.5719 7.22744 81.349 7.28717 81.1542 7.40219C80.9594 7.5172 80.8001 7.6831 80.6936 7.88183C80.568 8.11442 80.5055 8.37548 80.5123 8.63934C80.5069 8.90484 80.5693 9.16737 80.6936 9.40245C80.8025 9.61015 80.967 9.78399 81.1689 9.90484C81.3584 10.0201 81.5763 10.0809 81.7985 10.0805C82.0242 10.0812 82.2461 10.0225 82.4416 9.91044C82.6434 9.7944 82.8081 9.62414 82.9169 9.41923C83.0399 9.18273 83.1 8.91887 83.0914 8.65277C83.0998 8.38704 83.0398 8.12359 82.9169 7.88742V7.89078Z" fill="black"/>
<path d="M89.4316 6.70431C89.7897 7.06908 89.9688 7.57819 89.9688 8.23164V11.0804H88.7299V8.39501C88.7299 8.0101 88.633 7.7147 88.4393 7.50658C88.3377 7.40212 88.2148 7.32035 88.0788 7.26672C87.9429 7.21309 87.797 7.18882 87.6509 7.19552C87.502 7.1879 87.3532 7.21168 87.2142 7.26529C87.0752 7.3189 86.9492 7.40113 86.8445 7.50658C86.6474 7.7147 86.5494 8.0101 86.5494 8.39501V11.0804H85.3105V6.22765H86.5494V6.82851C86.7166 6.61608 86.9324 6.4465 87.179 6.33395C87.4425 6.2127 87.73 6.15153 88.0203 6.15492C88.6023 6.15641 89.0727 6.33954 89.4316 6.70431Z" fill="black"/>
<path d="M96.5691 9.91364H94.1262L93.7151 11.0807H92.4199L94.6319 4.9624H96.0679L98.2788 11.0807H96.9746L96.5691 9.91364ZM96.2312 8.93235L95.3448 6.3812L94.4551 8.93682L96.2312 8.93235Z" fill="black"/>
<path d="M100.74 6.38116C101.007 6.23066 101.31 6.15342 101.617 6.15737V7.44413H101.291C100.904 7.44413 100.615 7.53589 100.415 7.71603C100.214 7.89618 100.12 8.21172 100.12 8.66152V11.0806H98.8809V6.22786H100.12V6.9809C100.272 6.73208 100.486 6.52574 100.74 6.38116Z" fill="black"/>
<path d="M103.661 7.2347V9.58444C103.655 9.64857 103.663 9.71326 103.683 9.77436C103.704 9.83545 103.737 9.89159 103.781 9.93914C103.896 10.0241 104.039 10.0639 104.182 10.051H104.754V11.0804H103.979C102.939 11.0804 102.419 10.5784 102.419 9.57437V7.2347H101.838V6.22767H102.419V5.0293H103.658V6.22767H104.75V7.2347H103.661Z" fill="black"/>
<path d="M105.507 5.44443C105.439 5.37766 105.384 5.298 105.347 5.21011C105.31 5.12221 105.291 5.02784 105.291 4.93252C105.291 4.83719 105.31 4.74283 105.347 4.65493C105.384 4.56704 105.439 4.48738 105.507 4.42061C105.656 4.28811 105.849 4.21484 106.049 4.21484C106.249 4.21484 106.442 4.28811 106.591 4.42061C106.659 4.48753 106.713 4.56724 106.75 4.65512C106.787 4.74299 106.806 4.83728 106.806 4.93252C106.806 5.02776 106.787 5.12205 106.75 5.20992C106.713 5.2978 106.659 5.3775 106.591 5.44443C106.442 5.57693 106.249 5.65019 106.049 5.65019C105.849 5.65019 105.656 5.57693 105.507 5.44443ZM106.656 6.22767V11.0805H105.417V6.22767H106.656Z" fill="black"/>
<path d="M109.895 7.23508H109.04V11.0808H107.79V7.23508H107.234V6.22805H107.79V5.983C107.79 5.38624 107.96 4.94874 108.3 4.6705C108.64 4.39227 109.154 4.26098 109.842 4.27664V5.30941C109.543 5.30382 109.334 5.35305 109.217 5.45823C109.099 5.56341 109.04 5.75251 109.04 6.02664V6.22805H109.895V7.23508Z" fill="black"/>
<path d="M110.558 5.44443C110.49 5.37766 110.435 5.298 110.398 5.21011C110.361 5.12221 110.342 5.02784 110.342 4.93252C110.342 4.83719 110.361 4.74283 110.398 4.65493C110.435 4.56704 110.49 4.48738 110.558 4.42061C110.707 4.28811 110.9 4.21484 111.1 4.21484C111.3 4.21484 111.493 4.28811 111.642 4.42061C111.71 4.48753 111.764 4.56724 111.801 4.65512C111.838 4.74299 111.857 4.83728 111.857 4.93252C111.857 5.02776 111.838 5.12205 111.801 5.20992C111.764 5.2978 111.71 5.3775 111.642 5.44443C111.493 5.57693 111.3 5.65019 111.1 5.65019C110.9 5.65019 110.707 5.57693 110.558 5.44443ZM111.707 6.22767V11.0805H110.468V6.22767H111.707Z" fill="black"/>
<path d="M112.692 7.33548C112.887 6.9688 113.184 6.66521 113.547 6.46048C113.928 6.2481 114.36 6.14071 114.797 6.14942C115.402 6.14942 115.903 6.29861 116.3 6.59699C116.706 6.9129 116.988 7.36027 117.097 7.86137H115.767C115.704 7.66284 115.579 7.48951 115.41 7.36681C115.227 7.24278 115.009 7.18004 114.788 7.18778C114.628 7.1811 114.469 7.21209 114.324 7.27821C114.178 7.34433 114.051 7.44371 113.951 7.56821C113.746 7.82184 113.644 8.18213 113.644 8.64909C113.644 9.11606 113.746 9.47374 113.951 9.72214C114.051 9.84644 114.178 9.94561 114.324 10.0115C114.469 10.0775 114.628 10.1083 114.788 10.1015C115.287 10.1015 115.613 9.87991 115.767 9.43682H117.103C116.986 9.93224 116.703 10.3735 116.301 10.6878C115.901 10.9981 115.402 11.1529 114.803 11.1521C114.366 11.1603 113.934 11.0529 113.553 10.8411C113.19 10.6367 112.893 10.3335 112.698 9.96719C112.483 9.56221 112.375 9.10999 112.384 8.65245C112.373 8.19462 112.479 7.74156 112.692 7.33548Z" fill="black"/>
<path d="M117.866 5.44443C117.798 5.3775 117.743 5.2978 117.706 5.20992C117.669 5.12205 117.65 5.02776 117.65 4.93252C117.65 4.83728 117.669 4.74299 117.706 4.65512C117.743 4.56724 117.798 4.48753 117.866 4.42061C118.015 4.28811 118.208 4.21484 118.407 4.21484C118.607 4.21484 118.8 4.28811 118.949 4.42061C119.018 4.48738 119.072 4.56704 119.109 4.65493C119.146 4.74283 119.165 4.83719 119.165 4.93252C119.165 5.02784 119.146 5.12221 119.109 5.21011C119.072 5.298 119.018 5.37766 118.949 5.44443C118.8 5.57693 118.607 5.65019 118.407 5.65019C118.208 5.65019 118.015 5.57693 117.866 5.44443ZM119.016 6.22767V11.0805H117.777V6.22767H119.016Z" fill="black"/>
<path d="M119.992 7.33131C120.171 6.97074 120.449 6.66755 120.793 6.45631C121.133 6.25186 121.523 6.14567 121.92 6.14972C122.252 6.1439 122.581 6.22083 122.876 6.37351C123.133 6.50641 123.358 6.69489 123.532 6.92514V6.22805H124.771V11.0808H123.532V10.3681C123.362 10.6055 123.137 10.7992 122.876 10.9331C122.578 11.0867 122.246 11.1636 121.911 11.1569C121.513 11.1613 121.122 11.0518 120.784 10.8414C120.44 10.6245 120.163 10.3175 119.983 9.95407C119.782 9.54378 119.683 9.09188 119.694 8.63597C119.686 8.18368 119.788 7.73619 119.992 7.33131ZM123.361 7.89077C123.253 7.68602 123.088 7.51608 122.886 7.40068C122.691 7.28788 122.469 7.22879 122.243 7.22948C122.021 7.22507 121.802 7.27994 121.609 7.38837C121.41 7.50413 121.246 7.67214 121.137 7.87398C121.012 8.10668 120.95 8.36774 120.957 8.6315C120.951 8.89765 121.013 9.161 121.137 9.39684C121.247 9.60407 121.411 9.77775 121.612 9.89924C121.802 10.0145 122.02 10.0753 122.243 10.0749C122.469 10.0755 122.69 10.0168 122.886 9.90483C123.088 9.78879 123.253 9.61853 123.361 9.41362C123.484 9.17748 123.545 8.91415 123.538 8.64828C123.545 8.38392 123.484 8.12222 123.361 7.88741V7.89077Z" fill="black"/>
<path d="M127 4.59961V11.0804H125.766V4.59961H127Z" fill="black"/>
<path d="M46.1599 15.1792V21.2885H44.9258V15.1792H46.1599Z" fill="black"/>
<path d="M51.2719 16.9159C51.63 17.2807 51.8091 17.7898 51.8091 18.4432V21.2887H50.5758V18.61C50.5758 18.2251 50.4778 17.9297 50.2853 17.7215C50.1836 17.6171 50.0607 17.5353 49.9248 17.4817C49.7888 17.428 49.643 17.4038 49.4969 17.4105C49.348 17.4027 49.1991 17.4264 49.0601 17.48C48.9211 17.5337 48.7951 17.616 48.6905 17.7215C48.4934 17.9297 48.3954 18.2251 48.3954 18.61V21.2887H47.1621V16.4393H48.401V17.0435C48.5681 16.831 48.784 16.6615 49.0306 16.5489C49.294 16.4273 49.5815 16.3658 49.8719 16.3688C50.4463 16.3688 50.913 16.5511 51.2719 16.9159Z" fill="black"/>
<path d="M54.1976 17.4463V19.796C54.1916 19.86 54.199 19.9246 54.2193 19.9857C54.2397 20.0467 54.2726 20.1029 54.3159 20.1507C54.4312 20.2356 54.5739 20.2755 54.7168 20.2626H55.2901V21.2954H54.5141C53.4749 21.2954 52.9553 20.7933 52.9553 19.7893V17.4463H52.373V16.4392H52.9553V15.2397H54.1942V16.4392H55.2867V17.4463H54.1976Z" fill="black"/>
<path d="M60.4567 19.2309H56.8887C56.9 19.5422 57.0324 19.837 57.2581 20.0533C57.4762 20.2525 57.7639 20.3592 58.06 20.3509C58.2635 20.3624 58.4657 20.3127 58.6403 20.2084C58.8149 20.104 58.9537 19.9497 59.0387 19.7657H60.3677C60.2319 20.2269 59.9474 20.631 59.558 20.916C59.1316 21.2239 58.6139 21.3814 58.0871 21.3636C57.6454 21.3706 57.2096 21.2634 56.8223 21.0525C56.4526 20.8487 56.1499 20.5434 55.9505 20.173C55.7359 19.7689 55.6282 19.3173 55.6374 18.8605C55.627 18.4026 55.7324 17.9495 55.9438 17.5424C56.139 17.1728 56.4394 16.8685 56.8076 16.6674C57.1973 16.4675 57.6293 16.3624 58.0679 16.3609C58.5066 16.3593 58.9393 16.4613 59.3305 16.6585C59.6921 16.8509 59.9892 17.1441 60.1853 17.5022C60.3932 17.8883 60.4979 18.3209 60.4894 18.7587C60.4916 18.9167 60.4807 19.0747 60.4567 19.2309ZM59.2178 18.4085C59.221 18.2653 59.1923 18.1232 59.1339 17.9923C59.0755 17.8614 58.9888 17.7448 58.8799 17.651C58.6509 17.4596 58.3592 17.3585 58.06 17.3668C57.7772 17.3585 57.5019 17.4573 57.2897 17.6431C57.0723 17.8433 56.9362 18.1155 56.9067 18.4085H59.2178Z" fill="black"/>
<path d="M62.4058 14.811V21.2885H61.166V14.811H62.4058Z" fill="black"/>
<path d="M64.6365 14.811V21.2885H63.4023V14.811H64.6365Z" fill="black"/>
<path d="M65.7124 15.6559C65.6439 15.5891 65.5895 15.5094 65.5524 15.4215C65.5152 15.3336 65.4961 15.2393 65.4961 15.1439C65.4961 15.0486 65.5152 14.9543 65.5524 14.8664C65.5895 14.7785 65.6439 14.6988 65.7124 14.632C65.8613 14.4995 66.0542 14.4263 66.2541 14.4263C66.454 14.4263 66.6469 14.4995 66.7958 14.632C66.864 14.699 66.9182 14.7787 66.9552 14.8665C66.9921 14.9544 67.0112 15.0487 67.0112 15.1439C67.0112 15.2392 66.9921 15.3335 66.9552 15.4213C66.9182 15.5092 66.864 15.5889 66.7958 15.6559C66.6469 15.7884 66.454 15.8616 66.2541 15.8616C66.0542 15.8616 65.8613 15.7884 65.7124 15.6559ZM66.8612 16.4391V21.2885H65.6302V16.4391H66.8612Z" fill="black"/>
<path d="M70.7326 16.5745C70.9925 16.7051 71.216 16.8972 71.3835 17.1339V16.4424H72.6224V21.3265C72.6295 21.7437 72.5361 22.1565 72.3499 22.5305C72.1661 22.8847 71.8808 23.1767 71.5299 23.3697C71.1248 23.587 70.6691 23.6943 70.2088 23.6808C69.5151 23.6808 68.9467 23.5204 68.5037 23.1996C68.289 23.049 68.1103 22.8534 67.9801 22.6266C67.8499 22.3998 67.7714 22.1474 67.7502 21.8871H68.9778C69.0442 22.1103 69.1941 22.2997 69.3968 22.4164C69.6334 22.5528 69.9038 22.6207 70.1773 22.6122C70.3366 22.619 70.4957 22.5944 70.6454 22.5396C70.795 22.4849 70.9322 22.4012 71.049 22.2933C71.2743 22.0807 71.3869 21.7585 71.3869 21.3265V20.5735C71.2163 20.8117 70.9918 21.0068 70.7314 21.143C70.4368 21.2966 70.1079 21.3736 69.7752 21.3668C69.3772 21.3703 68.9865 21.2608 68.649 21.0513C68.3024 20.8352 68.0232 20.5276 67.8425 20.1629C67.6394 19.7537 67.5382 19.302 67.5475 18.8459C67.5384 18.3941 67.6396 17.9468 67.8425 17.5423C68.022 17.1821 68.2994 16.879 68.6433 16.6673C68.9848 16.4622 69.3773 16.356 69.7763 16.3608C70.1078 16.3542 70.4359 16.4275 70.7326 16.5745ZM71.2078 18.0973C71.0979 17.8935 70.9335 17.7239 70.7326 17.6072C70.537 17.4953 70.3152 17.4366 70.0895 17.4372C69.8627 17.4349 69.6396 17.4945 69.4446 17.6096C69.2495 17.7246 69.09 17.8906 68.9835 18.0895C68.8582 18.3218 68.7961 18.5825 68.8033 18.8459C68.797 19.1124 68.859 19.3762 68.9835 19.6124C69.093 19.8196 69.2573 19.9933 69.4587 20.1148C69.6486 20.2301 69.8669 20.291 70.0895 20.2904C70.3152 20.291 70.537 20.2323 70.7326 20.1203C70.9338 20.0035 71.0983 19.8335 71.2078 19.6291C71.3235 19.3902 71.3835 19.1284 71.3835 18.8632C71.3835 18.5981 71.3235 18.3363 71.2078 18.0973Z" fill="black"/>
<path d="M78.1144 19.2309H74.5464C74.5581 19.5424 74.6909 19.8372 74.9169 20.0533C75.1349 20.2527 75.4226 20.3595 75.7188 20.351C75.9222 20.3633 76.1247 20.314 76.2993 20.2095C76.4738 20.105 76.6123 19.9502 76.6964 19.7658H78.022C77.8853 20.2265 77.601 20.6304 77.2122 20.916C76.7855 21.2241 76.2674 21.3816 75.7402 21.3636C75.299 21.3705 74.8635 21.2633 74.4765 21.0525C74.1063 20.8491 73.8032 20.5437 73.6037 20.173C73.39 19.7699 73.2826 19.3195 73.2917 18.8639C73.2815 18.4047 73.3876 17.9503 73.6003 17.5424C73.7955 17.1732 74.0955 16.869 74.463 16.6674C74.8529 16.4675 75.2851 16.3624 75.7239 16.3609C76.1627 16.3593 76.5956 16.4613 76.987 16.6585C77.3484 16.8512 77.6454 17.1444 77.8418 17.5022C78.0494 17.8884 78.1537 18.321 78.1448 18.7587C78.1478 18.9167 78.1376 19.0746 78.1144 19.2309ZM76.8755 18.4085C76.8786 18.2653 76.85 18.1232 76.7916 17.9923C76.7332 17.8614 76.6465 17.7448 76.5376 17.651C76.309 17.4596 76.0176 17.3584 75.7188 17.3668C75.4357 17.3585 75.16 17.4573 74.9473 17.6432C74.7303 17.8436 74.5942 18.1156 74.5644 18.4085H76.8755Z" fill="black"/>
<path d="M82.9413 16.9159C83.2995 17.2807 83.4786 17.7898 83.4786 18.4433V21.2887H82.2397V18.61C82.2397 18.2251 82.1428 17.9297 81.9491 17.7215C81.8474 17.6171 81.7245 17.5353 81.5886 17.4817C81.4527 17.4281 81.3068 17.4038 81.1607 17.4105C81.0118 17.4029 80.863 17.4267 80.724 17.4804C80.585 17.534 80.459 17.6162 80.3543 17.7215C80.1572 17.9297 80.0592 18.2251 80.0592 18.61V21.2887H78.8203V16.4393H80.0592V17.0435C80.2264 16.8306 80.4427 16.661 80.6899 16.5489C80.9529 16.4272 81.24 16.3656 81.5301 16.3688C82.1135 16.3688 82.5839 16.5512 82.9413 16.9159Z" fill="black"/>
<path d="M84.423 17.5469C84.6184 17.1801 84.9149 16.8762 85.2778 16.6708C85.6596 16.4594 86.091 16.3524 86.528 16.3608C87.1339 16.3608 87.6351 16.51 88.0315 16.8084C88.4374 17.1245 88.7191 17.5719 88.8278 18.0728H87.4977C87.4364 17.8757 87.3127 17.7034 87.1452 17.5816C86.963 17.4571 86.7455 17.3939 86.5246 17.4014C86.3636 17.3938 86.203 17.4244 86.0563 17.4908C85.9096 17.5571 85.781 17.6573 85.681 17.783C85.4753 18.0366 85.3724 18.3969 85.3724 18.8638C85.3724 19.3308 85.4753 19.6881 85.681 19.9358C85.7804 20.0603 85.908 20.1597 86.0535 20.2258C86.1989 20.2919 86.358 20.3229 86.5178 20.3162C87.0164 20.3162 87.3423 20.0947 87.4954 19.6516H88.8256C88.7091 20.147 88.4263 20.5882 88.0236 20.9025C87.6249 21.2128 87.1256 21.3676 86.5257 21.3669C86.0886 21.3749 85.6572 21.2675 85.2756 21.0558C84.9127 20.8507 84.6162 20.5472 84.4207 20.1808C84.2184 19.7709 84.1133 19.3204 84.1133 18.8638C84.1133 18.4073 84.2184 17.9568 84.4207 17.5469H84.423Z" fill="black"/>
<path d="M94.0136 19.2309H90.4467C90.4584 19.5424 90.5912 19.8372 90.8172 20.0533C91.0352 20.2527 91.323 20.3595 91.6191 20.351C91.8226 20.3633 92.025 20.314 92.1996 20.2095C92.3742 20.105 92.5126 19.9502 92.5967 19.7658H93.9268C93.7889 20.2271 93.503 20.6311 93.1126 20.916C92.6858 21.2241 92.1677 21.3816 91.6405 21.3636C91.1993 21.3705 90.7638 21.2633 90.3768 21.0525C90.007 20.849 89.7042 20.5436 89.5051 20.173C89.29 19.7691 89.1823 19.3174 89.192 18.8605C89.1848 18.4018 89.2936 17.9486 89.5085 17.5424C89.7037 17.1732 90.0037 16.869 90.3712 16.6674C90.7611 16.4675 91.1933 16.3624 91.6321 16.3609C92.0709 16.3593 92.5038 16.4613 92.8952 16.6585C93.2566 16.8512 93.5536 17.1444 93.75 17.5022C93.9579 17.8883 94.0626 18.3209 94.0541 18.7587C94.0538 18.917 94.0402 19.0749 94.0136 19.2309ZM92.7747 18.4085C92.7771 18.2649 92.7476 18.1225 92.6882 17.9916C92.6289 17.8606 92.5411 17.7443 92.4312 17.651C92.2026 17.4596 91.9112 17.3584 91.6124 17.3668C91.3292 17.3585 91.0535 17.4573 90.8409 17.6432C90.6239 17.8436 90.4878 18.1156 90.4579 18.4085H92.7747Z" fill="black"/>
<path d="M97.8444 20.3162H99.8716V21.2885H96.6055V15.1792H97.8444V20.3162Z" fill="black"/>
<path d="M100.407 17.5424C100.587 17.1822 100.864 16.8791 101.208 16.6674C101.55 16.4623 101.942 16.3561 102.341 16.3609C102.673 16.3534 103.002 16.4284 103.297 16.579C103.554 16.7123 103.778 16.9007 103.953 17.1307V16.4392H105.192V21.2886H103.953V20.5792C103.782 20.8146 103.557 21.0064 103.297 21.1387C102.999 21.2919 102.668 21.3689 102.332 21.3624C101.934 21.3668 101.543 21.2573 101.206 21.0469C100.862 20.8292 100.585 20.5219 100.405 20.1585C100.202 19.7493 100.101 19.2976 100.11 18.8415C100.102 18.391 100.204 17.9454 100.407 17.5424ZM103.777 18.1019C103.667 17.8981 103.503 17.7285 103.302 17.6118C103.106 17.4999 102.884 17.4412 102.659 17.4417C102.432 17.4395 102.209 17.4991 102.014 17.6141C101.819 17.7292 101.659 17.8952 101.553 18.0941C101.428 18.3264 101.365 18.5871 101.373 18.8505C101.366 19.117 101.428 19.3807 101.553 19.6169C101.662 19.8242 101.827 19.9978 102.028 20.1193C102.218 20.2347 102.436 20.2955 102.659 20.295C102.884 20.2955 103.106 20.2369 103.302 20.1249C103.503 20.0081 103.668 19.838 103.777 19.6337C103.893 19.3947 103.953 19.133 103.953 18.8678C103.953 18.6026 103.893 18.3409 103.777 18.1019Z" fill="black"/>
<path d="M108.071 16.5789C108.367 16.4295 108.695 16.3546 109.027 16.3607C109.426 16.3556 109.818 16.4619 110.159 16.6673C110.503 16.8774 110.781 17.179 110.961 17.5379C111.164 17.9438 111.266 18.3926 111.256 18.8459C111.265 19.302 111.164 19.7535 110.961 20.1629C110.781 20.5266 110.503 20.834 110.159 21.0513C109.82 21.262 109.427 21.3715 109.027 21.3668C108.696 21.3743 108.367 21.301 108.071 21.1531C107.811 21.0204 107.586 20.8288 107.414 20.5936V21.2863H106.178V14.811H107.417V17.1485C107.584 16.9074 107.809 16.7116 108.071 16.5789ZM109.816 18.0895C109.706 17.8865 109.541 17.7182 109.339 17.6039C109.145 17.4929 108.925 17.4353 108.701 17.4372C108.479 17.4369 108.262 17.4957 108.071 17.6072C107.87 17.7254 107.705 17.8965 107.596 18.1018C107.477 18.3381 107.414 18.5989 107.414 18.8632C107.414 19.1276 107.477 19.3883 107.596 19.6247C107.705 19.8302 107.87 20.0018 108.071 20.1203C108.262 20.2319 108.479 20.2906 108.701 20.2904C108.926 20.2919 109.147 20.231 109.339 20.1147C109.54 19.9942 109.705 19.8222 109.816 19.6168C109.941 19.3792 110.003 19.1139 109.996 18.8459C110.002 18.5825 109.94 18.322 109.816 18.0895Z" fill="black"/>
<defs>
<linearGradient id="paint0_linear_874_1635" x1="21.6337" y1="-6.57848" x2="-9.16339" y2="7.97645" gradientUnits="userSpaceOnUse">
<stop stop-color="#FFBBAC"/>
<stop offset="1" stop-color="#696DD4"/>
</linearGradient>
</defs>
</svg>
